_________________________  Visit us at _________________________
  
http://p2pdl.com  ____________________________  http://p2pdl.com


The Last Exorcism Part 2 2013 BRRip 480p x264 - VYTO


Genre: Horror | Thriller
Plot: As Nell Sweetzer tries to build a new life after the events of the first movie, the evil force
that once possessed her returns with an even more horrific plan.
Director: Ed Gass-Donnelly 
Stars: Ashley Bell, Julia Garner, Spencer Treat Clark.
Rated: PG-13 for horror violence, terror and brief language.


Info: 
http://www.imdb.com/title/tt2034139/

Trailer:


Format                         : MPEG-4
Format profile                 : Base Media
Codec ID                       : isom
File size                      : 302 MiB
Duration                       : 1h 30mn
Overall bit rate mode          : Variable
Overall bit rate               : 467 Kbps
Source                         : UNRATED.720p.Bluray.x264-BLOW 

Video
Format                         : AVC
Bit rate                       : 429 Kbps
Width                          : 720 pixels
Height                         : 304 pixels
Display aspect ratio           : 2.35:1
Frame rate mode                : Constant
Frame rate                     : 23.976 fps
Stream size                    : 274 MiB (91%)
Writing library                : x264 core 130 r2273

Audio
Format                         : AAC
Bit rate mode                  : Variable
Bit rate                       : 39.6 Kbps
Channel(s)                     : 2 channels
Channel positions              : Front: L R
Sampling rate                  : 48.0 KHz
Stream size                    : 25.6 MiB (8%)
Language                       : English

Subtitle                       : Yes(English)
 
http://ultraimg.com/images/YZrvR.png 
http://ultraimg.com/images/WAvTx.png 
http://ultraimg.com/images/olwdJ.png 
http://ultraimg.com/images/Mnlwz.png 
http://ultraimg.com/images/0pmfA.png 
http://ultraimg.com/images/i9qbF.png 
http://ultraimg.com/images/beQ.png 
http://ultraimg.com/images/l6EOG.png 
http://ultraimg.com/images/Gb2N8.png 
http://ultraimg.com/images/PDhrq.png


----------------------------------------------------------------------------------------------------


Encoded using revolutionary 10bit encoding, which enables us to provide you more crispier 
and sharper images at small sizes, just make sure you follow our instructions without a fault.
Recommend to you to use latest version of VLC player. Install K-Lite Codec Pack or shark007 codecs
in case of any kind of problem in playback (For non-VLC Media Player users). Alternatively, install
Core AVC codecs, the fastest decoder that there is coupled with Community Center Codec Pack and play
on Windows Media Player Classic. Check sample to be sure.
Enjoy!

Encoder Notes:Looking For Early Access To Anything You Can Provide DVDScr, R5, DVDR, BluRay, Direct
Audio, Music Releases and Seedboxes. We require dedicated servers, so as to do more 
and fast releases of movies.
If You Got anything to offer please contact us at "contact@p2pdl.com".

Face book Fan Page:   
http://www.fb.me/p2pdl